<?xml version="1.0" encoding="UTF-8" standalone="no"?>
<!DOCTYPE svg PUBLIC "-//W3C//DTD SVG 1.1//EN" "http://www.w3.org/Graphics/SVG/1.1/DTD/svg11.dtd">
<svg width="100%" height="100%" viewBox="0 0 4725 4725" version="1.1" xmlns="http://www.w3.org/2000/svg" xmlns:xlink="http://www.w3.org/1999/xlink" xml:space="preserve" xmlns:serif="http://www.serif.com/" style="fill-rule:evenodd;clip-rule:evenodd;stroke-linecap:round;stroke-linejoin:round;stroke-miterlimit:1.5;">
    <g transform="matrix(1.767828,0,0,1.767828,64.087326,451.38114)">
        <circle cx="1108.626" cy="1080.888" r="765.927" style="fill:white;stroke:black;stroke-width:56.57px;"/>
    </g>
    <g transform="matrix(0.552423,0,0,0.67281,1816.998415,1303.363097)">
        <path d="M1609.617,2362.247C1609.617,2188.392 2012.193,2047.244 2508.053,2047.244C3003.913,2047.244 3406.488,2188.392 3406.488,2362.247C3750.156,2362.247 4029.17,2565.903 4029.17,2816.75C4029.17,3067.597 3750.156,3271.253 3406.488,3271.253C3406.488,3445.108 3003.913,3586.256 2508.053,3586.256C2012.193,3586.256 1609.617,3445.108 1609.617,3271.253C1265.95,3271.253 986.936,3067.597 986.936,2816.75C986.936,2565.903 1265.95,2362.247 1609.617,2362.247Z" style="fill:white;stroke:black;stroke-width:162.45px;"/>
    </g>
</svg>
