<svg version="1.2" xmlns="http://www.w3.org/2000/svg" viewBox="0 0 400 400" width="400" height="400">
	<style>
		.s0 { fill: #ffffff;stroke: #000000;stroke-miterlimit:100;stroke-width: 15 } 
	</style>
	<path id="Forma 2" fill-rule="evenodd" class="s0" d="m87.43 235.44c-36.74 0-66.43-29.69-66.43-66.43 0-36.73 29.69-66.42 66.43-66.42 36.73 0 66.42 29.69 66.42 66.42 0 36.74-29.69 66.43-66.42 66.43z"/>
	<path id="Forma 1" class="s0" d="m64.35 239.46c0 39.08 31.71 70.79 70.8 70.79h180.92c34.76 0 62.93-28.17 62.93-62.93 0-30.43-21.63-55.85-50.34-61.65 2.01-5.26 3.14-11.01 3.14-17.01 0-26.05-21.14-47.2-47.19-47.2-9.69 0-18.74 2.95-26.21 7.97-13.62-23.6-39.03-39.43-68.19-39.43-43.46 0-78.66 35.2-78.66 78.66q0.01 1.99 0.1 3.98c-27.53 9.69-47.3 35.94-47.3 66.82z"/>
</svg>