<svg version="1.2" xmlns="http://www.w3.org/2000/svg" viewBox="0 0 400 400" width="400" height="400">
	<style>
		.s0 { fill: #ffffff;stroke: #000000;stroke-miterlimit:100;stroke-width: 15 } 
	</style>
	<path id="Forma 2" fill-rule="evenodd" class="s0" d="m170.93 341.87c-78.49 0-141.93-63.45-141.93-141.94 0-78.49 63.44-141.93 141.93-141.93 78.49 0 141.94 63.44 141.94 141.93 0 78.49-63.45 141.94-141.94 141.94z"/>
	<path id="Forma 1" class="s0" d="m192.05 261.22c0 21.86 17.73 39.59 39.59 39.59h101.17c19.44 0 35.19-15.75 35.19-35.19 0-17.01-12.1-31.23-28.15-34.47 1.12-2.94 1.76-6.16 1.76-9.52 0-14.57-11.82-26.39-26.4-26.39-5.41 0-10.47 1.65-14.65 4.46-7.61-13.2-21.83-22.05-38.13-22.05-24.3 0-43.99 19.68-43.99 43.98q0.01 1.12 0.06 2.23c-15.4 5.42-26.45 20.1-26.45 37.36z"/>
</svg>