<svg version="1.2" xmlns="http://www.w3.org/2000/svg" viewBox="0 0 400 400" width="400" height="400">
	<style>
		.s0 { fill: #ffffff;stroke: #000000;stroke-miterlimit:100;stroke-width: 15 } 
	</style>
	<path id="Forma 3" fill-rule="evenodd" class="s0" d="m124.35 28c18 0 34.5 7.89 47.44 21.07 11.84-13.11 27.4-21.07 44.41-21.07 25.62 0 47.91 18.07 59.08 44.56 5.11-1.83 10.49-2.81 16.07-2.81 32.3 0 58.45 32.68 58.45 73.06 0 40.38-26.15 73.07-58.45 73.07h-14.25c-11.79 12.98-27.24 20.87-44.2 20.87-16.96 0-32.41-7.89-44.2-20.87h-64.35c-41.49 0-75.15-42.08-75.15-93.94 0-51.86 33.66-93.94 75.15-93.94zm242.15 255.72c0 8.67-5.58 15.65-12.53 15.65h-175.34c-6.95 0-12.53-6.98-12.53-15.65 0-8.68 5.58-15.66 12.53-15.66h175.34c6.95 0 12.53 6.98 12.53 15.66zm-33.4 62.62c0 8.68-5.58 15.66-12.53 15.66h-58.44c-6.95 0-12.53-6.98-12.53-15.66 0-8.67 5.58-15.65 12.53-15.65h58.44c6.95 0 12.53 6.98 12.53 15.65zm-100.2 0c0 8.68-5.58 15.66-12.52 15.66h-175.36c-6.94 0-12.52-6.98-12.52-15.66 0-8.67 5.58-15.65 12.52-15.65h175.36c6.94 0 12.52 6.98 12.52 15.65zm-96.02-46.96h-54.28c-6.94 0-12.53-6.99-12.53-15.66 0-8.68 5.59-15.66 12.53-15.66h54.28c6.94 0 12.52 6.98 12.52 15.66 0 8.67-5.58 15.66-12.52 15.66z"/>
</svg>