<svg version="1.2" xmlns="http://www.w3.org/2000/svg" viewBox="0 0 400 400" width="400" height="400">
	<style>
		.s0 { fill: #ff0000;stroke: #000000;stroke-miterlimit:100;stroke-width: 15 } 
	</style>
	<path id="Forma 1" fill-rule="evenodd" class="s0" d="m183.71 367.53c-35.27-44.18-115.71-151.26-115.71-211.4 0-72.95 59.12-132.13 132-132.13 72.87 0 132 59.18 132 132.13 0 60.14-80.44 167.22-115.71 211.4-8.45 10.53-24.13 10.53-32.58 0zm-14.82-242.54c-8.25 8.25-12.89 19.46-12.89 31.14 0 11.68 4.64 22.88 12.89 31.14 8.25 8.26 19.44 12.9 31.11 12.9 11.67 0 22.86-4.64 31.11-12.9 8.25-8.26 12.89-19.46 12.89-31.14 0-11.68-4.64-22.89-12.89-31.14-8.25-8.26-19.44-12.9-31.11-12.9-11.67 0-22.86 4.64-31.11 12.9z"/>
</svg>