<svg version="1.2" xmlns="http://www.w3.org/2000/svg" viewBox="0 0 400 400" width="400" height="400">
	<style>
		.s0 { fill: #ffffff;stroke: #000000;stroke-miterlimit:100;stroke-width: 15 } 
	</style>
	<path id="Forma 1" class="s0" d="m30.35 242.58c0 42.19 34.23 76.42 76.42 76.42h195.3c37.52 0 67.93-30.41 67.93-67.93 0-32.85-23.35-60.28-54.34-66.55 2.17-5.67 3.39-11.88 3.39-18.36 0-28.13-22.82-50.95-50.94-50.95-10.46 0-20.22 3.19-28.29 8.6-14.7-25.47-42.14-42.56-73.61-42.56-46.91 0-84.91 38-84.91 84.91q0.01 2.15 0.1 4.3c-29.71 10.46-51.05 38.8-51.05 72.12z"/>
</svg>