<svg version="1.2" xmlns="http://www.w3.org/2000/svg" viewBox="0 0 400 400" width="400" height="400">
	<style>
		.s0 { fill: #ffffff;stroke: #000000;stroke-miterlimit:100;stroke-width: 15 } 
	</style>
	<path id="Forma 2" fill-rule="evenodd" class="s0" d="m155 342c-78.53 0-142-63.47-142-142 0-78.53 63.47-142 142-142 78.53 0 142 63.47 142 142 0 78.53-63.47 142-142 142z"/>
	<path id="Forma 1" class="s0" d="m87.64 275.41c0 36.76 29.83 66.59 66.59 66.59h170.18c32.69 0 59.19-26.5 59.19-59.19 0-28.63-20.34-52.53-47.35-57.99 1.9-4.95 2.96-10.36 2.96-16 0-24.51-19.89-44.39-44.4-44.39-9.1 0-17.61 2.77-24.64 7.49-12.81-22.2-36.72-37.09-64.14-37.09-40.88 0-73.99 33.11-73.99 73.99q0.01 1.87 0.09 3.74c-25.9 9.11-44.49 33.81-44.49 62.85z"/>
</svg>